<svg width="240" height="79" viewBox="0 0 240 79" fill="none" xmlns="http://www.w3.org/2000/svg">
<path d="M162.591 29.2135C162.591 33.0264 162.031 35.9568 160.911 38.0104C159.791 40.0696 158.292 41.4612 156.419 42.1853C154.547 42.9094 152.459 43.2715 150.157 43.2715C148.097 43.2715 146.134 42.8925 144.262 42.1344C142.389 41.3764 140.845 39.9734 139.634 37.9142C138.424 35.8606 137.818 32.9529 137.818 29.2078V0H127.93V29.304C127.93 36.6244 129.819 42.2476 133.598 46.1793C137.377 50.111 142.898 52.074 150.157 52.074C157.415 52.074 163.083 50.1393 166.806 46.2698C170.528 42.4003 172.384 36.7432 172.384 29.304V0H162.585V29.2135H162.591Z" fill="white"/>
<path d="M25.0838 20.8636C23.2396 21.1068 21.2596 21.2256 19.1438 21.2256H9.07406V7.52966H19.1438C21.2596 7.52966 23.2282 7.64846 25.0385 7.89172C26.8545 8.13497 28.3197 8.74029 29.4398 9.70766C30.5599 10.675 31.12 12.276 31.12 14.5162C31.12 16.632 30.5769 18.1594 29.485 19.0985C28.3989 20.0376 26.928 20.6259 25.0838 20.8636ZM36.3811 26.7866C34.0221 25.5929 30.6674 24.9933 26.3114 24.9933C30.0621 24.6595 32.9472 23.9637 34.9781 22.9058C37.0034 21.8479 38.395 20.5015 39.1531 18.8666C39.9112 17.2317 40.2845 15.4497 40.2845 13.5149C40.2845 10.3073 39.6057 7.8012 38.2423 5.98526C36.8789 4.16932 35.1422 2.83989 33.0264 1.99697C30.9106 1.1484 28.7157 0.605314 26.4472 0.362057C24.1786 0.1188 22.1081 0 20.2356 0H0V23.8109H10.5449V28.3027H19.4153C21.8932 28.3027 24.1617 28.4554 26.2209 28.7553C28.2744 29.0608 29.9433 29.7679 31.2105 30.888C32.4777 32.0081 33.1169 33.7449 33.1169 36.1039C33.1169 38.4629 32.5116 40.0809 31.301 41.1388C30.0904 42.1966 28.4894 42.8812 26.4924 43.181C24.4954 43.4865 22.3174 43.6336 19.9584 43.6336H9.16458V43.5996H0V51.0727H20.6825C22.7983 51.0727 25.1121 50.9709 27.6238 50.7559C30.13 50.5466 32.5342 50.0035 34.8367 49.121C37.1335 48.2441 39.0117 46.8864 40.4599 45.0365C41.9138 43.1923 42.6379 40.6353 42.6379 37.3711C42.6379 35.1309 42.1853 33.1056 41.2745 31.2953C40.3694 29.4794 38.7345 27.9802 36.3754 26.7809" fill="white"/>
<path d="M211.79 7.98223H239.091V0H202.625V18.7082H211.79V7.98223Z" fill="white"/>
<path d="M232.737 21.4062H216.75V29.0264H232.737V21.4062Z" fill="white"/>
<path d="M211.79 43.6335V31.7139H202.625V51.0726H240.002V43.6335H211.79Z" fill="white"/>
<path d="M77.2028 43.6449V0H67.8516V51.5988H72.9996V51.6214H107.842V44.1597L77.2028 43.6449Z" fill="white"/>
<path d="M157.064 69.9677C156.696 69.9677 156.323 69.6113 156.323 69.1248C156.323 68.5986 156.691 68.2649 157.064 68.2649H161.041C161.782 68.2649 162.059 68.6552 162.059 69.2605C162.059 72.0665 159.429 74.4821 156.187 74.4821C152.193 74.4821 149.891 71.6592 149.891 68.4176C149.891 65.1761 152.199 62.3701 156.176 62.3701C158.127 62.3701 159.547 62.9981 160.673 64.1465C160.803 64.2992 160.894 64.5368 160.894 64.7744C160.894 65.3118 160.537 65.6682 160.124 65.6682C159.949 65.6682 159.723 65.5834 159.564 65.4137C158.648 64.5538 157.596 64.1125 156.193 64.1125C153.681 64.1125 152.142 66.0869 152.142 68.4176C152.142 70.7484 153.692 72.7397 156.221 72.7397C158.026 72.7397 159.536 71.6761 159.96 69.9677H157.064Z" fill="white"/>
<path d="M172.874 64.277V68.2144H176.794C178.304 68.2144 179.13 67.4733 179.13 66.24C179.13 65.0068 178.316 64.2827 176.777 64.2827H172.874V64.277ZM172.874 73.2832C172.874 74.0412 172.325 74.4825 171.81 74.4825C171.324 74.4825 170.758 74.0412 170.758 73.2832V63.7566C170.758 62.9985 171.318 62.5742 171.81 62.5742H176.794C179.543 62.5742 181.257 63.6887 181.257 66.24C181.257 67.9938 180.471 69.0743 179.096 69.5834L181.184 72.5704C181.331 72.808 181.495 73.0795 181.495 73.4133C181.495 74.0356 181.082 74.4768 180.562 74.4768C180.251 74.4768 179.911 74.2902 179.662 73.8998L176.896 69.9342H172.874V73.2775V73.2832Z" fill="white"/>
<path d="M195.316 65.2262L192.742 70.0235H197.89L195.316 65.2262ZM198.772 71.7093H191.837L190.609 74.0401C190.434 74.3456 190.123 74.4983 189.84 74.4983C189.393 74.4983 188.906 74.091 188.906 73.4517C188.906 73.2311 188.952 73.0444 189.025 72.8973L194.292 63.0652C194.512 62.6409 194.778 62.4033 195.31 62.4033C195.842 62.4033 196.108 62.6409 196.328 63.0652L201.578 72.8973C201.669 73.0501 201.708 73.2368 201.708 73.4517C201.708 74.108 201.222 74.4983 200.764 74.4983C200.481 74.4983 200.187 74.3456 199.994 74.0401L198.767 71.7093H198.772Z" fill="white"/>
<path d="M215.696 74.4649L215.34 75.0759C216.165 74.991 217.263 75.2965 217.263 76.4449C217.263 77.5933 216.33 78.0855 214.762 78.0855C213.461 78.0855 212.856 77.7121 212.856 77.1747C212.856 76.8692 213.094 76.5694 213.343 76.5694C213.591 76.5694 213.891 76.9427 214.717 76.9427C215.396 76.9427 215.724 76.756 215.724 76.3544C215.724 75.8452 215.119 75.8792 214.304 75.8792C214.067 75.8792 213.965 75.6586 213.965 75.421L214.542 74.4423C211.08 74.0859 209.156 71.3874 209.156 68.4287C209.156 65.272 211.374 62.3643 215.34 62.3643C216.861 62.3643 218.044 62.7546 219.198 63.7163C219.435 63.92 219.537 64.1915 219.537 64.4404C219.537 65.0288 219.022 65.5719 218.445 65.1645C217.336 64.3556 216.539 64.118 215.458 64.118C212.782 64.118 211.3 66.0244 211.3 68.4231C211.3 70.8217 212.777 72.7451 215.458 72.7451C216.477 72.7451 217.382 72.4905 218.474 71.6816C218.592 71.5967 218.722 71.5458 218.858 71.5458C219.226 71.5458 219.599 71.9022 219.599 72.3887C219.599 72.7112 219.435 72.9318 219.232 73.1128C218.179 73.9897 217.059 74.414 215.696 74.4649Z" fill="white"/>
<path d="M233.599 65.2262L231.025 70.0235H236.173L233.599 65.2262ZM237.061 71.7093H230.126L228.898 74.0401C228.723 74.3456 228.412 74.4983 228.129 74.4983C227.687 74.4983 227.195 74.091 227.195 73.4517C227.195 73.2311 227.241 73.0444 227.314 72.8973L232.581 63.0652C232.802 62.6409 233.067 62.4033 233.599 62.4033C234.131 62.4033 234.397 62.6409 234.617 63.0652L239.867 72.8973C239.958 73.0501 239.997 73.2368 239.997 73.4517C239.997 74.108 239.511 74.4983 239.053 74.4983C238.77 74.4983 238.476 74.3456 238.283 74.0401L237.056 71.7093H237.061Z" fill="white"/>
</svg>
