<svg width="141" height="936" viewBox="0 0 141 936" fill="none" xmlns="http://www.w3.org/2000/svg">
<path d="M163.632 520.138C154.094 519.908 144.537 519.677 134.999 519.427C131.922 519.35 131.576 518.811 132.769 515.985C133.115 515.158 133.48 514.312 133.98 513.562C139.345 505.37 140.903 496.101 141.806 486.602C142.153 483.025 142.941 479.602 145.556 476.891C145.902 476.526 146.518 476.103 146.498 475.737C146.21 472.353 148.768 472.045 150.998 471.68C153.69 471.257 156.056 469.988 158.555 469.142C165.19 466.872 172.093 465.949 179.035 465.276C180.958 465.084 182.862 464.68 184.784 464.507C186.554 464.353 187.88 464.642 188.573 466.834C189.669 470.353 190.88 473.891 192.188 477.276C193.611 480.987 194.572 484.871 195.553 488.602C196.649 492.659 198.764 496.986 196.822 501.639C195.265 505.408 197.284 509.254 197.476 513.081C197.534 514.369 197.649 515.639 197.572 516.927C197.399 519.811 195.899 521.427 193.053 521.465C190.861 521.504 188.669 521.254 186.477 521.177C178.862 520.869 171.266 520.581 163.651 520.292C163.651 520.234 163.651 520.196 163.651 520.138" fill="white" fill-opacity="0.5"/>
<path d="M53.5544 434.145C53.4967 434.683 53.4198 435.202 53.3621 435.741C51.6122 438.952 51.9776 442.702 50.6315 446.067C50.0546 447.509 50.9969 449.567 51.3238 451.336C51.5161 452.336 51.9583 453.297 52.2083 454.297C53.0352 457.778 52.2468 458.432 48.6701 458.643C36.2863 459.374 23.9024 458.335 11.5378 459.085C11.0186 459.124 10.4994 459.162 9.99946 459.258C7.16631 459.733 5.32027 458.611 4.46135 455.893C4.24983 455.336 4.0383 454.797 3.82678 454.24C4.5575 450.528 3.13451 447.24 1.74998 443.952C1.67307 443.548 1.57692 443.163 1.5 442.76C1.61538 441.471 1.73076 440.202 1.84613 438.933C2.26918 437.587 2.59608 436.202 3.11528 434.914C4.80748 430.837 3.61525 426.491 4.34597 422.357C5.2113 417.415 4.30751 412.492 4.78825 407.569C5.13438 403.897 5.09593 403.82 8.5957 403.935C22.1333 404.339 35.6901 404.781 49.2277 405.204C51.4199 405.281 53.6121 405.262 55.8042 405.416C58.0349 405.57 58.6502 406.262 57.9003 408.396C56.285 413.05 55.5158 417.857 54.5928 422.645C54.3043 424.184 53.9967 425.684 54.1313 427.241C53.939 429.549 53.7467 431.856 53.5544 434.183" fill="white" fill-opacity="0.5"/>
<path d="M76.3203 440.158C77.3394 434.351 78.4163 428.563 80.1469 422.89C80.8777 420.505 79.4162 417.909 78.974 415.39C78.8009 414.39 78.3201 413.41 78.2625 412.41C78.1278 410.602 78.9163 409.852 80.7623 409.871C92.9731 409.968 105.203 410.064 117.414 410.198C119.202 410.218 120.991 410.679 122.779 410.698C124.529 410.698 125.279 411.66 124.875 413.102C124.336 415.006 124.913 416.679 125.356 418.39C126.336 422.198 125.49 426.044 125.625 429.889C125.702 432.005 125.836 433.985 127.106 435.735C127.048 437.024 126.99 438.331 126.913 439.62C126.759 440.177 126.875 440.716 127.125 441.216C126.606 443.581 126.529 446.042 125.586 448.331C125.125 449.465 125.452 450.638 125.683 451.734C126.317 454.869 127.067 458.003 127.817 461.118C128.355 463.349 127.875 464.156 125.567 464.387C124.163 464.522 122.721 464.483 121.317 464.387C106.684 463.195 92.0693 461.887 77.4356 460.791C75.1473 460.618 74.5704 459.618 74.6858 457.734C74.9357 453.138 74.955 448.542 75.6665 443.985C75.8588 442.716 76.1087 441.446 76.3203 440.196" fill="white" fill-opacity="0.5"/>
<path d="M138.657 1.83955C145.753 -0.218008 153.137 0.378114 160.367 0.0127522C164.271 -0.198773 167.828 2.24337 170.232 5.68546C169.617 7.78148 168.598 9.70444 168.098 11.8581C167.502 14.4157 167.213 16.7809 168.54 19.2615C169.309 20.7037 169.501 22.4536 169.232 24.1651C168.655 27.8764 168.694 31.5492 169.386 35.299C169.905 38.1449 169.175 41.1832 169.636 44.1253C169.751 44.8945 169.617 45.7021 169.828 46.4329C171.213 50.9903 169.367 54.7016 166.963 58.3552C166.329 59.3167 165.656 59.7013 164.54 59.8551C154.425 61.2589 144.253 61.7204 134.081 62.4703C131.831 62.6434 131.427 62.1819 131.427 59.759C131.427 57.836 131.485 55.8554 131.965 54.0093C132.831 50.7403 131.562 47.8943 130.485 45.0483C129.196 41.6639 128.889 38.3949 130.273 34.9913C130.562 34.2798 130.754 33.4914 130.735 32.7222C130.715 28.684 131.85 24.8189 133.023 21.0883C134.081 17.6847 134.119 14.3195 133.773 11.0121C133.427 7.80072 134.061 5.49316 136.773 3.74327C137.503 3.26254 138.042 2.47413 138.676 1.83955" fill="white" fill-opacity="0.5"/>
<path d="M111.369 199.044C114.869 200.428 114.926 200.447 113.484 203.563C112.83 205.005 112.619 206.447 112.465 208.005C112.177 211.004 111.561 213.985 111.581 217.004C112.965 220.773 113.138 224.715 113.523 228.676C114.061 234.099 112.773 239.118 111.35 244.195C110.773 246.214 111.638 248.598 109.523 250.213C107.754 251.56 105.619 251.521 103.619 251.848C94.9854 253.252 86.3129 254.54 77.525 254.348C73.506 254.252 73.0253 253.886 72.583 249.829C72.5061 249.06 72.3138 248.31 72.1599 247.56C72.1599 247.233 72.1599 246.906 72.1407 246.579C72.6407 243.291 71.91 240.233 70.1408 237.464C69.2755 236.118 69.1024 234.676 69.8332 233.445C71.6023 230.522 71.5638 227.215 71.41 224.138C71.1985 220.023 72.1407 216.043 72.1407 211.985C72.1407 210.466 72.2946 208.908 72.1984 207.389C72.1023 205.851 71.8715 204.37 73.1791 203.101C74.1598 202.159 73.8137 200.659 74.1406 199.447C74.5252 198.082 75.179 197.236 76.8327 197.294C82.0632 197.505 87.3513 196.851 92.5433 198.063C94.3508 199.236 96.3507 198.871 98.3314 198.794C100.831 198.871 103.389 200.121 105.85 198.524C106.331 198.332 106.792 198.14 107.273 197.948C108.369 199.294 110.004 198.698 111.369 199.044Z" fill="white" fill-opacity="0.5"/>
<path d="M81.7492 714.722C82.6145 712.664 82.8837 710.53 82.7683 708.299C82.5568 704.203 83.5375 700.107 82.8068 695.992C82.6914 695.396 82.6722 694.531 83.0183 694.127C84.9413 691.704 84.4029 689.07 83.9798 686.377C83.5952 683.935 83.6914 683.666 86.3258 683.897C90.5179 684.262 94.6522 683.551 98.8058 683.512C105.459 683.435 112.132 683.474 118.805 683.281C121.881 683.185 124.939 683.205 127.939 684.224C129.535 684.781 131.265 684.551 132.919 684.32C134.707 684.07 135.534 684.416 135.227 686.55C134.477 691.608 135.477 696.511 137.034 701.319C137.361 702.338 137.823 703.223 138.688 703.857C139.707 709.453 138.015 714.241 134.457 718.51C134.304 718.702 134.092 718.914 134.034 719.164C133.246 723.452 130.035 723.644 126.535 723.894C112.382 724.913 98.2289 726.086 84.076 727.221C83.3068 727.279 82.5376 727.356 81.7684 727.413C80.2108 727.529 79.4032 726.683 80.0377 725.317C81.6338 721.914 80.8454 718.202 81.7492 714.722Z" fill="white" fill-opacity="0.5"/>
<path d="M12.2578 151.197C12.6424 150.004 12.7578 148.774 13.3923 147.601C14.2769 145.966 15.0076 144.159 14.4307 142.101C13.9692 140.428 14.6807 139.39 16.5652 139.294C25.43 138.851 34.0449 136.64 42.7751 135.332C43.7943 135.178 44.8326 135.082 45.8518 135.121C49.0631 135.198 50.4861 136.582 49.8516 139.678C48.717 145.197 49.8516 150.716 49.4477 156.235C49.3708 157.177 49.5631 157.985 50.2361 158.715C51.2169 159.773 51.2938 161.215 50.8323 162.35C50.0246 164.292 50.5054 166.08 51.5053 167.446C53.6205 170.349 54.0436 173.503 53.9475 176.887C52.7937 178.656 52.3899 180.618 52.3322 182.695C52.2937 184.368 52.2553 186.06 52.063 187.714C51.8322 189.656 50.8707 190.56 48.7747 191.271C43.0251 193.232 37.0831 194.425 31.2374 195.925C27.1607 196.982 22.8533 197.175 18.642 197.732C17.2767 197.905 16.5844 197.213 16.1037 195.925C15.373 193.982 14.9115 191.983 14.6807 189.925C14.3923 187.367 14.0077 184.829 12.7385 182.502C12.5462 182.175 12.277 181.791 12.2963 181.445C12.7385 175.464 9.50797 169.715 11.6424 163.542C12.4885 161.119 12.3347 158.254 12.9693 155.619C13.3154 154.216 13.2962 152.543 12.2386 151.197" fill="white" fill-opacity="0.5"/>
<path d="M81.6207 863.268C75.3711 864.633 68.9677 864.691 62.6604 865.556C60.8143 865.518 58.9683 865.364 57.1415 865.787C45.9114 866.075 34.7775 867.325 23.6436 868.671C23.009 868.748 22.3744 868.883 21.7399 868.941C20.3746 869.094 19.9708 868.537 20.1246 867.133C20.7976 860.48 21.3745 853.807 21.9706 847.154C22.086 846.615 22.2014 846.058 22.2975 845.519C23.3167 840.212 23.8936 834.885 23.8359 829.482C23.8359 827.828 23.4705 825.866 24.2013 824.578C25.1435 822.867 27.2203 824.482 28.8163 824.155C32.1431 823.463 35.3159 824.713 38.4696 825.578C46.5075 827.809 54.6993 829.539 62.5065 832.501C67.487 834.385 72.7751 835.231 77.6017 837.654C80.7554 839.25 82.5437 840.942 82.7168 844.827C82.8706 847.904 84.2744 850.961 84.2359 854.211C84.2359 856.018 84.2936 857.807 84.3321 859.614C83.8321 861.134 82.7168 862.21 81.6399 863.287" fill="white" fill-opacity="0.5"/>
<path d="M66.3395 140.545C66.8972 139.064 65.5704 136.93 67.301 136.026C68.8202 135.238 69.9162 137.199 71.2815 137.757C76.8004 139.968 82.5693 140.834 88.4151 141.314C89.5496 141.41 90.7034 141.468 91.8379 141.526C92.934 142.199 94.107 142.526 95.3954 142.449C96.5107 143.18 97.7414 143.449 99.049 143.218C100.376 143.641 101.607 143.199 102.856 142.833C103.376 143.064 103.876 143.064 104.337 142.68C106.472 142.353 108.587 142.026 110.779 142.506C112.606 142.91 114.24 142.506 115.298 140.545C116.259 138.776 117.894 138.18 119.875 138.949C120.048 139.468 120.221 139.987 120.394 140.507C120.317 140.853 120.24 141.218 120.144 141.564C120.086 141.987 120.028 142.391 119.971 142.814C118.682 148.372 119.067 154.063 118.644 159.698C118.086 166.986 118.086 174.312 117.836 181.639C117.49 181.927 117.144 182.196 116.798 182.485C113.856 182.831 110.991 182.235 108.087 181.908C106.029 181.677 103.991 181.639 101.953 182.177C100.068 182.677 98.126 182.6 96.203 182.408C95.1069 182.062 94.0109 181.716 92.9148 181.369C90.8957 179.562 88.492 179.466 86.0114 179.908C83.2039 180.389 80.3771 180.562 77.5504 180.716C75.9543 180.793 74.8005 180.293 73.9737 178.966C73.1853 177.716 72.0315 177.024 70.6277 176.562C67.5125 175.524 67.5318 175.447 67.4356 172.312C67.2049 163.928 66.9741 155.544 66.7241 147.16C66.6472 144.968 66.4549 142.776 66.3203 140.584" fill="white" fill-opacity="0.5"/>
<path d="M88.5864 14.1087C90.6632 13.6088 92.6246 12.7242 94.8937 13.9741C96.1436 14.6664 97.6435 13.6857 98.9127 13.0703C100.432 12.3204 101.97 11.7243 103.701 11.8204C106.316 11.9935 108.777 11.8204 110.893 9.85899C111.854 8.9552 112.893 9.6667 112.777 11.0512C111.796 22.4544 112.989 33.9344 111.566 45.3375C111.47 46.1067 111.45 46.8759 111.335 47.6451C110.835 51.1641 110.104 51.8179 106.605 51.5294C100.836 51.0487 95.086 50.3564 89.2787 50.568C87.6057 50.6256 85.9135 50.5103 84.279 50.7987C81.5292 51.2602 78.9332 51.0679 76.3757 49.8949C73.9335 48.7796 71.2991 49.5103 68.78 49.318C68.28 49.1257 68.107 49.3949 68.0493 49.8372C67.107 50.2218 66.1648 50.6641 65.1841 50.991C62.3381 51.9333 62.0497 51.5102 60.0498 49.2411C57.2038 46.0105 57.2615 42.2608 57.4923 38.4726C57.6269 36.3958 57.8961 34.2997 57.4923 32.3191C56.6462 28.1848 57.3576 24.1273 57.7038 20.0314C57.7807 19.2238 57.9153 18.4931 58.7614 18.1469C61.915 16.9162 64.8379 15.4356 68.6262 16.0125C73.472 16.7624 78.4909 16.3201 83.4137 15.7817C85.3559 15.8586 87.6057 16.9932 88.6249 14.128" fill="white" fill-opacity="0.5"/>
<path d="M6.78791 520.673C7.57632 519.058 7.38403 517.385 6.46101 515.654C6.13411 515.039 6.24949 514.135 6.3264 513.385C6.71099 509.674 6.76868 506.02 6.53793 502.251C6.34563 499.136 5.88412 495.771 7.30711 492.444C8.30705 490.098 7.96091 487.118 7.98014 484.426C7.99937 481.695 8.78778 479.08 9.07623 476.388C9.26852 474.599 10.6338 473.734 12.0183 474.772C13.7875 476.08 15.6527 475.657 17.4795 476.003C20.9216 476.657 24.133 478.157 27.0174 480.041C32.8247 483.868 39.2474 485.887 45.9585 487.175C47.4969 487.464 48.8429 487.906 50.2659 488.598C53.458 490.175 57.0155 491.214 60.4191 491.925C64.3419 492.733 67.8994 494.656 71.8415 495.079C73.7644 495.29 73.8606 496.463 73.4567 497.809C72.553 500.809 72.053 504.021 68.0917 504.963C66.1495 505.424 64.4189 506.751 62.6305 507.77C62.0536 508.097 61.496 508.443 60.8422 508.386C57.5924 508.116 54.9772 509.905 52.0927 510.885C48.9583 511.943 45.7854 513.212 42.4203 513.116C36.6899 512.962 32.1132 515.751 27.7481 518.827C24.0368 521.462 20.2486 523.038 15.672 521.808C14.6913 521.539 13.9028 521.962 13.1337 522.423C12.3645 522.885 11.6338 523.462 10.8261 523.827C8.26859 524.981 6.49947 523.635 6.80714 520.654" fill="white" fill-opacity="0.5"/>
<path d="M50.0278 207.716L50.2201 207.927C52.2584 212.138 54.1045 216.427 56.3543 220.522C58.085 223.676 58.1427 226.945 57.8927 230.272C57.6427 233.56 57.7581 236.502 59.8926 239.367C61.7001 241.79 61.7771 245.156 63.8154 247.636C64.7961 248.828 64.0461 250.174 62.2193 250.194C58.5657 250.232 55.1236 251.386 51.5854 251.924C48.8548 252.347 46.028 252.578 43.509 253.828C41.9129 254.616 40.163 253.213 38.6631 254.328C38.1055 254.213 37.5671 254.193 37.0671 254.54C35.4518 254.386 33.875 254.424 32.3751 255.155C31.0867 255.001 29.7983 254.828 28.5099 255.097C27.5485 254.886 26.3562 255.174 25.7601 254.078C25.2601 253.155 24.4333 252.809 23.5103 253.001C20.9527 253.54 18.8375 252.444 16.6838 251.367C16.3953 250.79 16.2799 250.232 16.703 249.674C17.9914 249.501 18.1837 248.886 17.4529 247.848C13.7801 242.617 11.1841 237.079 12.2417 230.406C12.434 229.176 12.4533 227.714 11.9725 226.599C10.7034 223.676 11.511 220.792 11.6072 217.869C11.6264 217.003 12.0879 216.119 12.9532 216.35C16.453 217.311 19.3567 215.177 22.5103 214.561C26.2601 213.831 29.8175 212.138 33.4519 210.85C34.1442 210.6 34.9711 210.427 35.0672 209.446L34.8557 209.273L34.6634 209.465C35.0672 209.889 35.5095 209.946 36.0095 209.658C40.0092 209.85 43.7205 208.485 47.528 207.639C48.3741 207.658 49.2202 207.677 50.0663 207.716" fill="white" fill-opacity="0.5"/>
<path d="M90.3304 755.024C90.4842 753.543 90.3496 752.658 92.7726 752.543C98.003 752.293 103.118 750.697 108.099 748.947C109.945 748.293 111.829 747.928 113.752 747.889C116.713 747.851 119.636 747.966 122.425 746.659C123.328 746.236 124.463 746.255 125.251 747.255C124.847 753.677 123.886 760.062 123.828 766.504C123.79 770.676 124.251 774.695 125.79 778.637C127.001 781.772 127.559 785.06 127.174 788.502C126.905 790.79 126.847 793.137 128.136 795.29C129.116 796.944 128.309 797.982 126.674 798.521C125.694 798.828 124.694 799.213 123.694 799.271C117.617 799.636 112.06 802.078 106.233 803.424C101.08 804.636 96.5031 807.328 91.3303 808.424C89.1189 808.885 88.7728 808.693 89.0228 806.463C89.1382 805.443 89.2728 804.386 89.6381 803.424C91.9265 797.463 91.5803 791.271 91.2534 785.079C91.1957 783.791 91.2534 782.503 91.388 781.233C92.0034 774.945 91.9457 768.638 92.2726 762.35C92.4264 759.619 91.0804 757.446 90.3304 755.043" fill="white" fill-opacity="0.5"/>
<path d="M79.623 317.959C79.6614 317.209 79.7191 316.44 79.7576 315.69C81.4882 312.132 81.8728 308.69 80.6421 304.69C79.6422 301.46 79.0653 297.883 78.9884 294.441C78.8922 289.076 78.0461 283.634 79.546 278.288C79.7576 277.558 79.8153 276.788 80.046 276.058C81.2767 272.154 82.5651 271.462 86.661 270.846C91.853 270.039 96.9872 268.847 102.064 267.404C105.102 266.539 108.294 266.154 111.448 265.674C113.179 265.404 114.102 266.462 114.313 268.077C114.486 269.346 114.505 270.654 114.602 271.942C115.082 277.577 115.313 283.249 118.428 288.268C118.87 288.961 119.409 289.749 119.37 290.749C119.178 295.037 121.293 298.575 123.139 302.191C124.524 304.883 124.447 305.286 121.62 306.267C118.467 307.363 115.198 308.19 112.14 309.479C107.91 311.267 103.795 313.363 99.6602 315.382C96.8719 316.728 94.0644 318.036 91.0069 318.67C88.7378 319.132 86.8148 320.478 84.6611 321.228C81.4882 322.362 81.5075 322.401 80.4114 319.266C80.2383 318.805 79.8922 318.401 79.6037 317.978" fill="white" fill-opacity="0.5"/>
<path d="M26.8338 115.563C26.3723 115.794 25.9108 116.044 25.43 116.275C21.1611 114.448 17.0267 116.159 13.027 117.14C10.8156 117.678 8.46955 117.063 6.33508 118.274C5.52743 118.736 4.66211 117.794 4.60442 116.736C4.41212 113.506 3.43141 110.467 2.35456 107.448C2.1238 106.794 2.46994 105.948 2.5084 105.179C2.56608 103.891 2.81607 102.545 2.52762 101.333C1.33539 96.1989 1.31616 90.8723 0.162391 85.738C-0.0106747 84.9689 -0.2222 84.0074 0.566211 83.642C3.31604 82.4113 5.79665 80.3922 9.25797 81.2383C12.5847 82.046 15.9114 83.469 19.4304 82.6613C25.0454 81.3537 30.3336 83.1228 35.6986 84.1804C36.5832 84.3535 37.4677 84.6612 38.3523 84.6035C44.9672 84.1997 50.9476 86.8534 57.1588 88.4302C58.9279 88.8725 59.9471 89.7762 60.0432 91.8723C60.1394 94.4106 60.7547 96.9296 61.1008 99.4679C61.3316 101.045 61.9085 102.429 63.1199 103.506C63.6776 104.371 64.1583 105.237 63.9853 106.314C61.9085 108.025 59.5625 107.448 57.4088 106.737C55.9665 106.275 54.9858 106.064 54.3128 107.64C53.8321 108.756 52.9475 109.006 51.813 108.948C45.9864 108.679 40.6214 110.986 35.1025 112.217C32.3719 112.832 29.1605 113.429 26.853 115.582" fill="white" fill-opacity="0.5"/>
<path d="M136.109 434.216C137.032 427.197 137.013 420.12 137.629 413.082C137.917 409.813 137.84 409.794 141.224 409.89C142.378 409.929 143.532 410.044 144.667 410.159C148.647 410.544 152.531 410.544 156.454 409.256C159.589 408.217 162.973 408.717 166.242 408.602C167.165 408.583 168.03 408.91 168.703 409.563C170.223 411.044 171.819 411.775 173.895 410.583C174.242 410.371 174.915 410.544 175.357 410.698C179.357 412.121 183.395 411.602 187.452 411.044C190.51 410.621 190.779 410.833 191.164 413.813C191.51 416.505 191.471 419.217 190.914 421.87C190.529 423.659 190.337 425.428 190.452 427.235C189.433 430.716 189.798 434.37 189.087 437.908C188.798 439.292 188.606 440.388 187.01 440.677C186.645 440.735 186.241 440.908 185.991 441.177C183.145 444.215 179.837 444.542 176.165 442.888C175.722 442.696 175.088 442.638 174.665 442.811C171.242 444.215 167.954 443.504 164.55 442.542C160.608 441.427 156.57 440.773 152.474 440.292C147.974 439.773 143.705 438.235 139.725 436.158C138.532 435.543 137.052 435.369 136.109 434.273" fill="white" fill-opacity="0.5"/>
<path d="M31.3828 725.585C31.4405 725.047 31.479 724.527 31.5366 723.989C31.7097 723.489 31.8828 722.989 32.0558 722.489C33.5365 719.162 33.6711 715.528 34.4788 712.047C35.4787 707.759 35.2095 703.394 35.3441 699.067C35.5556 692.26 36.6517 685.568 37.1901 678.8C37.2478 678.05 37.1324 677.28 37.094 676.511C38.1901 675.761 39.3246 676.473 40.4399 676.434C43.3244 677.627 46.4395 677.492 49.4394 677.992C51.7277 677.627 52.2084 680.069 53.8045 680.78C53.9968 683.818 55.9582 686.184 57.0158 688.876C59.4003 695.087 60.2464 701.529 60.804 708.028C60.9963 710.259 61.1309 712.547 62.4385 714.278C63.5346 715.72 62.5924 717.72 64.1692 718.816C64.4769 719.758 64.7845 720.681 65.0922 721.624C65.0922 722.162 65.0922 722.72 65.0922 723.258C64.0538 726.354 64.2461 729.623 63.8038 732.796C63.6115 734.142 63.1308 734.815 61.6117 734.796C57.7273 734.758 53.9775 735.815 50.1701 736.392C49.6509 736.181 49.1509 736.142 48.6509 736.43C47.8818 736.488 47.0934 736.43 46.3819 736.642C43.0359 737.642 39.8438 737.373 36.7479 735.738C35.3056 734.969 33.0942 735.584 32.1712 734.219C30.9405 732.392 31.5751 730.008 31.4213 727.854C31.3636 727.085 31.4213 726.316 31.4213 725.566" fill="white" fill-opacity="0.5"/>
<path d="M61.2469 319.803C61.093 320.168 61.1507 320.495 61.4199 320.803C61.4199 321.514 61.4199 322.206 61.4007 322.899C60.7277 322.591 60.5162 323.149 60.1892 323.533C54.9011 323.437 49.8053 322.014 44.6133 321.303C39.6713 320.63 34.8832 318.822 29.8066 318.918C28.7105 317.937 27.326 317.553 25.9799 317.264C24.2685 316.88 23.4608 315.707 23.5185 314.303C23.6339 311.265 23.557 308.227 24.0762 305.15C24.6338 301.958 25.653 298.785 25.3453 295.477C26.3837 293.824 26.4991 292.074 26.4606 290.093C26.3645 286.42 26.9798 282.728 27.0183 279.055C27.0375 276.248 26.6337 273.479 27.8259 270.748C28.9989 268.037 29.1528 267.787 32.018 268.018C35.6139 268.306 39.1906 268.652 42.7865 268.902C44.2287 268.998 45.1133 269.556 45.6709 270.96C49.2669 279.998 54.6319 288.324 56.5164 298.054C56.5933 298.419 56.7664 298.785 56.9202 299.131C58.4778 302.938 59.67 306.823 59.497 311.015C59.5354 311.265 59.5739 311.515 59.6124 311.765C59.8239 313.688 59.5354 315.688 60.5162 317.495L60.5546 317.514C60.5161 318.38 60.8815 319.11 61.2661 319.822" fill="white" fill-opacity="0.5"/>
<path d="M129.28 233.466C128.492 229.427 127.703 225.37 126.896 221.332C126.434 219.024 126.896 218.486 129.165 218.87C130.03 219.024 130.818 219.659 131.761 219.389C136.895 217.87 141.645 219.543 146.375 221.236C147.856 221.755 149.394 221.87 150.933 222.062C154.875 222.524 158.721 223.274 162.259 225.254C167.124 227.966 172.797 228.6 177.777 231.004C179.046 231.619 180.431 232.062 181.104 233.466C181.642 237.408 182.219 241.35 182.738 245.311C183.123 248.253 183.007 248.368 180.161 248.772C165.912 250.811 151.644 252.81 137.395 254.906C135.472 255.195 134.703 254.945 134.337 252.81C133.203 246.234 131.318 239.83 129.28 233.466Z" fill="white" fill-opacity="0.5"/>
<path d="M109.838 865.035C104.492 865.728 99.1465 866.439 93.7815 867.093C91.0509 867.439 90.8201 867.266 91.3009 864.536C92.7046 856.748 93.2046 848.787 95.2045 841.095C95.3968 840.345 95.416 839.576 95.5314 838.806C96.339 833.172 98.6273 830.692 104.319 830.095C108.261 829.692 112.261 829.807 116.242 829.865C119.241 829.903 122.164 829.711 125.01 828.769C127.376 827.999 129.818 827.846 132.26 827.865C134.548 827.865 135.298 828.634 135.26 830.903C135.183 834.749 135.24 838.633 134.779 842.46C134.01 848.863 134.414 855.286 134.26 861.709C134.202 864.266 133.894 864.689 131.337 864.016C129.279 863.478 127.299 863.516 125.241 863.862C122.703 864.266 120.126 864.516 117.549 864.151C115.703 863.901 113.973 864.401 112.242 864.959C111.434 864.786 110.607 864.728 109.819 865.035" fill="white" fill-opacity="0.5"/>
<path d="M37.0533 772.122C38.8993 768.641 39.6493 764.795 40.8223 761.084C41.5338 758.854 42.053 758.392 43.9759 759.18C49.4179 761.392 55.0906 762.93 60.6095 764.892C62.4171 765.526 64.2823 766.026 65.8784 767.18C66.8783 774.737 66.5899 782.352 66.1091 789.871C65.8015 794.794 65.513 799.851 64.1093 804.697C63.0324 808.427 62.9555 808.504 59.0327 807.985C58.3981 807.908 57.7635 807.87 57.1097 807.812C56.3405 807.485 55.5329 807.447 54.706 807.6C50.2448 807.1 45.7643 806.639 41.303 806.101C37.8802 805.677 34.3996 805.562 31.0921 804.408C29.6114 803.889 28.9384 803.216 29.2845 801.62C29.6499 799.889 29.6499 798.043 30.2652 796.428C33.1497 788.64 35.0149 780.564 37.0341 772.526C37.0725 772.41 37.0341 772.276 37.0341 772.141" fill="white" fill-opacity="0.5"/>
<path d="M126.213 882.422C125.31 884.384 124.983 886.903 125.656 889.249C127.636 896.152 126.848 903.498 129.29 910.344C130.367 913.382 130.079 913.536 127.04 914.824C122.002 916.978 116.733 918.286 111.349 919.343C106.253 920.343 101.254 921.901 96.2346 923.266C93.6963 923.958 93.6002 923.958 92.9463 921.766C90.4657 913.516 87.9851 905.267 85.5045 896.998C84.4277 893.422 84.5623 892.96 87.9467 891.249C90.1196 890.153 92.3502 889.133 94.6385 888.345C101.869 885.826 109.157 883.442 116.406 880.999C117.637 880.576 118.868 880.23 120.175 880.326C121.195 880.403 122.137 880.346 123.137 879.826C125.252 878.749 126.29 879.576 126.194 882.422" fill="white" fill-opacity="0.5"/>
<path d="M63.7751 889.956C63.7174 890.994 63.7559 892.033 63.6213 893.052C63.3905 894.879 63.3328 896.686 63.2559 898.532C63.0444 904.436 62.256 910.339 61.6791 916.243C61.5445 917.589 60.7945 917.954 59.5446 917.743C58.2755 917.531 57.0063 917.377 55.7179 917.262C52.2566 916.954 48.853 916.685 45.3532 917.435C41.5265 918.243 37.6806 916.82 33.8347 916.839C32.5463 916.839 31.2964 916.8 30.0272 916.435C28.6812 916.031 28.0081 915.416 28.3158 913.974C28.412 913.474 28.4504 912.955 28.5081 912.435C29.2773 906.167 30.1811 899.917 30.7772 893.648C31.0849 890.514 32.6232 888.725 35.45 887.802C36.1807 887.552 36.9114 887.206 37.6614 887.11C45.584 885.976 53.5257 885.226 61.5445 885.379C63.1021 885.418 64.0059 885.918 63.6982 887.687C63.5636 888.437 63.679 889.225 63.679 890.014C63.7174 890.014 63.7366 890.014 63.7751 890.014" fill="white" fill-opacity="0.5"/>
<path d="M52.4589 380.643C47.8438 380.643 43.4979 381.623 39.5751 384.123C39.2482 384.335 38.9597 384.681 38.5944 384.738C32.4217 385.758 26.4413 387.565 20.3263 388.892C18.4803 389.296 18.0765 388.181 17.7111 386.892C16.5573 382.931 15.3843 378.97 14.269 375.008C12.0961 367.182 9.98081 359.355 7.84633 351.51C7.01946 348.452 7.01946 348.452 10.0193 347.991C11.8461 347.722 13.7306 347.222 14.6536 345.549C16.9804 341.357 21.0378 340.587 25.1529 340.068C26.922 339.837 28.7296 339.857 30.518 339.511C31.9025 339.241 33.3447 339.145 34.6523 339.972C34.9792 340.184 35.383 340.472 35.7099 340.414C40.1135 339.703 43.6902 342.126 47.4977 343.549C54.5741 346.183 61.5929 349.048 68.5925 351.894C69.9193 352.433 70.6885 353.606 71.0731 355.106C72.2461 359.875 74.2267 364.355 76.0343 368.913C76.6304 370.412 78.0342 372.201 75.669 373.566C74.5152 373.643 73.2653 373.374 72.3038 374.143C69.0924 376.739 65.1119 376.681 61.3622 377.412C58.2278 378.027 55.0741 378.643 52.4397 380.681" fill="white" fill-opacity="0.5"/>
<path d="M86.0967 393.7C85.4814 385.335 84.8083 376.97 84.2507 368.605C83.6546 359.586 83.1546 350.568 82.6546 341.549C82.4431 337.78 82.5008 337.876 86.1544 337.646C91.4233 337.338 96.673 336.588 101.98 336.972C106.615 337.299 111.23 338.011 115.883 337.53C117.499 337.357 118.499 337.703 118.652 339.722C118.883 342.838 120.595 345.549 121.575 348.472C121.998 349.741 122.152 350.875 122.037 352.202C121.537 357.452 120.998 362.682 121.191 368.009C121.364 372.874 120.748 377.778 120.287 382.643C120.018 385.45 120.152 388.335 119.306 391.084C110.749 391.777 102.173 392.488 93.6155 393.18C93.0578 393.219 92.5194 393.277 91.9617 393.334C90.0003 393.45 88.0581 393.565 86.0967 393.7Z" fill="white" fill-opacity="0.5"/>
<path d="M164.441 139.813C165.153 139.774 165.672 139.736 166.172 139.717C169.864 139.582 170.364 140.082 168.653 143.216C165.941 148.158 167.903 152.293 170.383 156.35C171.364 157.946 171.96 159.312 170.883 160.946C168.48 164.542 169.095 168.349 170.422 171.984C171.479 174.83 172.21 177.676 171.941 180.656C171.672 183.618 172.556 186.483 173.672 188.848C174.768 191.136 174.614 193.502 175.479 195.732C176.518 198.405 174.556 200.54 170.98 201.059C168.941 201.347 166.884 201.501 164.845 201.751C159 202.443 153.308 203.963 147.5 204.789C142.097 205.559 138.655 202.117 139.635 196.694C140.212 193.502 140.27 190.329 140.058 187.098C139.732 182.022 141.212 177.137 141.981 172.195C143.443 162.754 146.423 153.697 149.519 144.678C150.212 142.678 151.365 141.467 153.596 141.14C157.269 140.601 160.807 139.005 164.441 139.813Z" fill="white" fill-opacity="0.5"/>
<path d="M140.016 384.625C140.689 381.395 141.746 378.222 140.862 374.857C140.708 374.261 140.631 373.492 140.862 372.953C142.535 369.069 142.189 364.896 142.592 360.839C142.823 358.531 143.169 356.262 143.919 354.051C144.573 352.108 145.746 349.878 145.304 348.128C144.265 344.186 146.246 340.878 146.611 337.282C146.861 334.802 147.246 334.552 149.919 334.783C152.611 334.994 155.342 335.167 157.957 335.763C162.61 336.821 167.399 336.936 172.052 337.994C173.302 338.282 174.59 338.436 175.417 339.551C175.571 339.859 175.533 340.09 175.302 340.301C172.033 343.07 172.11 343.032 173.667 346.936C175.052 350.416 175.802 353.897 174.648 357.781C173.763 360.8 174.187 364.108 174.167 367.319C174.129 374.761 173.59 382.241 171.244 389.433C171.129 389.798 171.091 390.183 171.014 390.567C162.822 390.74 154.649 391.952 146.4 390.856C140.573 390.087 140.554 390.298 140.016 384.645" fill="white" fill-opacity="0.5"/>
<path d="M140.055 125.009C140.228 122.548 140.708 120.106 141.612 117.875C143.747 112.587 144.689 107.01 146.016 101.511C146.843 98.1455 148.4 94.9726 148.689 91.4536C148.804 90.1075 149.708 89.4922 151.035 89.3191C152.631 89.1268 154.15 89.3191 155.496 90.1844C157.361 91.3574 159.438 92.0113 161.438 92.8766C169.668 96.4533 177.841 100.203 185.013 105.78C187.032 107.356 189.321 108.606 191.455 110.049C192.84 110.972 193.397 112.029 192.974 113.952C192.032 118.202 192.263 122.644 191.205 126.913C190.859 128.317 190.59 129.663 189.609 130.778C187.398 130.913 185.34 131.624 183.34 132.489C181.764 133.182 179.994 133.739 178.475 133.22C174.091 131.72 169.399 131.663 165.072 130.124C163.822 129.682 162.592 129.509 161.361 129.509C158.111 129.528 155.015 128.817 151.919 127.874C150.208 127.355 148.439 127.221 146.631 127.086C144.381 126.913 141.766 127.201 140.074 125.009" fill="white" fill-opacity="0.5"/>
<path d="M14.1963 614.014C15.1578 610.898 15.177 610.668 17.9653 610.86C22.5804 611.187 27.2147 610.418 31.849 611.245C33.9835 611.629 36.1949 611.321 38.0602 609.802C40.5216 607.802 43.1945 607.879 45.9635 609.187C47.598 609.956 49.4633 610.398 50.8478 611.475C53.8476 613.821 57.309 614.533 60.9049 614.975C61.5395 615.052 62.2125 615.071 62.8086 615.264C66.1545 616.225 66.8084 617.36 66.4238 620.84C65.4046 629.955 65.1354 639.089 66.3084 648.185C66.7891 651.915 66.193 655.646 66.5584 659.376C66.7507 661.376 65.4815 663.011 64.1739 664.491C61.0587 664.491 57.9628 664.76 54.9245 665.51C54.3476 665.51 53.7707 665.472 53.1938 665.472C50.444 664.895 47.6173 664.434 44.8674 664.203C41.3677 663.914 37.7525 664.876 34.195 665.222C29.8876 665.645 25.5802 666.645 21.2343 665.433C20.5998 664.933 19.869 664.78 19.0806 664.799C17.5999 664.01 16.3308 662.972 15.1578 661.761C11.799 658.338 10.3632 654.21 10.8504 649.377C11.3119 644.8 11.6772 640.223 12.0811 635.628C12.3695 635.128 12.4272 634.628 12.2157 634.089C13.1002 627.417 13.7348 620.725 14.1963 614.014Z" fill="white" fill-opacity="0.5"/>
<path d="M11.3138 582.229C11.4869 581.152 10.9484 580.21 10.6408 579.249C10.2946 578.172 9.69853 577.403 10.7562 576.172C12.0253 574.672 11.5253 572.711 10.8138 571.018C9.71775 568.442 9.60238 565.807 9.6793 563.077C9.77544 560.25 9.98697 557.423 8.46783 554.789C7.7948 553.616 8.08324 552.212 8.4486 551C9.2947 548.058 9.23702 545.193 8.50629 542.27C8.33323 541.597 8.04478 540.963 8.21785 540.097C8.94857 536.463 9.39085 536.213 13.1406 536.347C19.6787 536.578 26.2359 537.367 32.774 535.905C34.8508 535.444 37.1775 536.174 39.312 535.828C41.4465 535.463 40.0235 538.54 42.0042 538.136C43.2349 537.886 44.6002 537.694 45.7924 538.328C46.6962 538.809 46.6769 539.828 46.85 540.693C47.8499 545.385 49.6383 549.731 52.465 553.635C52.6958 553.942 52.7919 554.385 53.0804 554.596C57.0994 557.654 58.6762 562.192 60.4261 566.634C61.7914 570.134 63.6374 573.403 65.8873 576.364C67.4256 578.402 68.2717 580.595 68.6948 583.037C69.1178 585.479 70.0216 587.652 71.7138 589.594C73.6752 591.844 74.6944 594.575 74.829 597.594C71.9061 598.343 68.9832 598.055 66.0603 597.497C64.4258 597.171 62.7721 596.94 61.1376 596.747C52.3497 595.786 43.6194 594.632 35.1777 591.786C33.024 591.056 30.8318 590.19 28.4858 590.19C28.0051 589.825 27.4474 589.709 26.8705 589.863C26.3705 589.69 25.8898 589.536 25.4091 589.363C24.9283 588.979 24.4284 588.979 23.8899 589.229C21.6016 588.498 19.2556 588.036 16.8904 587.767C16.6981 586.844 16.0058 586.96 15.3328 587.037C14.5636 587.037 13.7752 587.037 13.006 587.017C12.6983 586.44 12.3907 585.864 12.083 585.306C12.3137 584.191 11.8138 583.248 11.3907 582.287" fill="white" fill-opacity="0.5"/>
<path d="M119.088 647.185C117.222 647.723 115.396 648.377 113.415 648.204C111.78 648.069 110.434 648.896 109.069 649.627C107.261 649.8 105.396 651.107 103.704 649.204C103.108 648.531 102.3 648.742 101.646 649.281C99.2812 651.204 96.1853 651.319 93.5124 652.511C92.0894 653.146 90.9164 652.415 90.7818 650.8C90.4549 647.05 88.955 643.396 90.051 639.493C90.4933 637.916 90.051 636.185 89.4357 634.589C89.3972 634.224 89.3588 633.859 89.3203 633.493C89.8587 630.897 90.2818 628.282 90.2626 625.609C90.8971 620.686 92.474 619.609 97.4544 620.686C100.781 621.398 104.166 621.071 107.492 620.994C114.203 620.821 120.876 620.917 127.568 621.186C128.472 621.225 129.356 621.186 130.241 620.956C132.587 620.359 132.991 620.552 133.125 622.763C133.318 626.244 133.298 629.724 133.414 633.205C133.529 636.551 133.76 639.916 133.837 643.262C133.914 646.223 133.491 646.665 130.664 646.896C129.645 646.973 128.606 646.954 127.587 646.973C124.741 646.492 121.895 645.819 119.068 647.108" fill="white" fill-opacity="0.5"/>
<path d="M107.846 536.382C107.769 535.67 96.2504 535.651 91.0392 536.459C88.9239 536.786 86.6933 536.689 84.5396 536.266C83.982 535.055 84.2512 533.978 85.2511 533.17C86.9048 531.844 86.6356 530.382 85.7895 528.728C85.155 527.479 84.7704 526.094 84.1358 524.844C82.2321 521.133 83.3666 517.037 82.5397 513.191C83.1551 510.499 82.7513 507.768 82.5013 505.095C81.9436 499.173 82.3282 493.288 82.8282 487.385C83.0589 484.558 84.2896 481.885 84.2127 479.001C84.1742 477.539 85.2319 477.251 86.328 477.52C91.6738 478.789 96.7504 477.424 101.962 476.424C105.577 475.732 109.307 475.79 112.846 474.443C114.403 473.867 115.518 474.693 115.595 476.597C115.73 479.424 116.018 482.251 116.23 485.077C117.23 498.327 118.249 511.576 119.268 524.806C119.287 525.133 107.884 536.882 107.827 536.343" fill="white" fill-opacity="0.5"/>
<path d="M93.6727 554.614C94.3458 554.691 95.0188 554.768 95.6918 554.826C96.5187 555.21 97.3071 555.999 98.2301 554.98L98.0763 555.23L98.3263 555.384C98.6724 555.422 99.0185 555.48 99.3647 555.518C101.499 556.672 103.653 556.48 105.518 555.172C108.191 553.287 110.71 551.422 114.152 553.345C114.364 553.461 114.844 553.076 115.191 552.941C115.556 553.038 116.191 553.307 116.229 553.23C117.594 550.692 120.056 550.922 122.286 550.922C125.882 550.922 129.401 549.538 133.036 550.518C133.324 550.595 133.728 550.23 134.074 550.076C137.497 550.865 138.901 553.191 138.843 556.518C138.824 558.056 138.785 559.576 139.401 561.037C139.112 562.229 139.401 565.691 139.862 565.96C140.497 566.306 142.208 587.132 142.073 589.766C141.939 592.266 142.016 592.247 139.554 591.9C138.804 591.804 138.035 591.804 137.285 591.766C134.497 589.766 131.228 589.958 128.074 589.977C123.825 589.997 119.652 589.939 115.575 588.497C113.287 587.689 110.768 587.881 108.345 587.805C104.499 587.67 100.692 587.228 96.9994 586.055C94.8457 585.382 92.6536 585.035 90.6537 586.189C88.8269 587.247 88.1346 586.439 87.4616 584.92C86.3847 582.478 86.1347 579.67 84.3848 577.517C84.3079 576.555 84.0772 575.651 83.5387 574.863L83.6349 575.036C84.2887 573.229 82.5388 572.113 82.3657 570.479C81.8081 564.998 80.0005 559.787 78.5391 554.403C83.6349 552.691 88.6538 554.807 93.7112 554.595" fill="white" fill-opacity="0.5"/>
</svg>
